HIERARCHY
ROOT Hips
{
	OFFSET 0.000000 0.000000 0.000000
	CHANNELS 6 Xposition Yposition Zposition Zrotation Yrotation Xrotation 
	JOINT LHipJoint
	{
		OFFSET 0.000000 0.000000 0.000000
		CHANNELS 3 Zrotation Yrotation Xrotation
		JOINT LeftUpLeg
		{
			OFFSET 1.363060 -1.794630 0.839290
			CHANNELS 3 Zrotation Yrotation Xrotation
			JOINT LeftLeg
			{
				OFFSET 2.448110 -6.726130 0.000000
				CHANNELS 3 Zrotation Yrotation Xrotation
				JOINT LeftFoot
				{
					OFFSET 2.562200 -7.039590 0.000000
					CHANNELS 3 Zrotation Yrotation Xrotation
					JOINT LeftToeBase
					{
						OFFSET 0.157640 -0.433110 2.322550
						CHANNELS 3 Zrotation Yrotation Xrotation
						End Site
						{
							OFFSET 0.000000 0.000000 0.000000
						}
					}
				}
			}
		}
	}
	JOINT RHipJoint
	{
		OFFSET 0.000000 0.000000 0.000000
		CHANNELS 3 Zrotation Yrotation Xrotation
		JOINT RightUpLeg
		{
			OFFSET -1.305520 -1.794630 0.839290
			CHANNELS 3 Zrotation Yrotation Xrotation
			JOINT RightLeg
			{
				OFFSET -2.542530 -6.985550 0.000000
				CHANNELS 3 Zrotation Yrotation Xrotation
				JOINT RightFoot
				{
					OFFSET -2.568260 -7.056230 0.000000
					CHANNELS 3 Zrotation Yrotation Xrotation
					JOINT RightToeBase
					{
						OFFSET -0.164730 -0.452590 2.363150
						CHANNELS 3 Zrotation Yrotation Xrotation
						End Site
						{
							OFFSET 0.000000 0.000000 0.000000
						}
					}
				}
			}
		}
	}
	JOINT LowerBack
	{
		OFFSET 0.000000 0.000000 0.000000
		CHANNELS 3 Zrotation Yrotation Xrotation
		JOINT Spine
		{
			OFFSET 0.028270 2.035590 -0.193380
			CHANNELS 3 Zrotation Yrotation Xrotation
			JOINT Spine1
			{
				OFFSET 0.056720 2.048850 -0.042750
				CHANNELS 3 Zrotation Yrotation Xrotation
				JOINT Neck
				{
					OFFSET 0.000000 0.000000 0.000000
					CHANNELS 3 Zrotation Yrotation Xrotation
					JOINT Neck1
					{
						OFFSET -0.054170 1.746240 0.172020
						CHANNELS 3 Zrotation Yrotation Xrotation
						JOINT Head
						{
							OFFSET 0.104070 1.761360 -0.123970
							CHANNELS 3 Zrotation Yrotation Xrotation
							End Site
							{
								OFFSET 0.000000 0.000000 0.000000
							}
						}
					}
				}
				JOINT LeftShoulder
				{
					OFFSET 0.000000 0.000000 0.000000
					CHANNELS 3 Zrotation Yrotation Xrotation
					JOINT LeftArm
					{
						OFFSET 3.362410 1.200890 -0.311210
						CHANNELS 3 Zrotation Yrotation Xrotation
						JOINT LeftForeArm
						{
							OFFSET 4.983000 -0.000000 -0.000000
							CHANNELS 3 Zrotation Yrotation Xrotation
							JOINT LeftHand
							{
								OFFSET 3.483560 -0.000000 -0.000000
								CHANNELS 3 Zrotation Yrotation Xrotation
								JOINT LeftFingerBase
								{
									OFFSET 0.000000 0.000000 0.000000
									CHANNELS 3 Zrotation Yrotation Xrotation
									JOINT LeftHandIndex1
									{
										OFFSET 0.715260 -0.000000 -0.000000
										CHANNELS 3 Zrotation Yrotation Xrotation
										End Site
										{
											OFFSET 0.000000 0.000000 0.000000
										}
									}
								}
								JOINT LThumb
								{
									OFFSET 0.000000 0.000000 0.000000
									CHANNELS 3 Zrotation Yrotation Xrotation
									End Site
									{
										OFFSET 0.000000 0.000000 0.000000
									}
								}
							}
						}
					}
				}
				JOINT RightShoulder
				{
					OFFSET 0.000000 0.000000 0.000000
					CHANNELS 3 Zrotation Yrotation Xrotation
					JOINT RightArm
					{
						OFFSET -3.136600 1.374050 -0.404650
						CHANNELS 3 Zrotation Yrotation Xrotation
						JOINT RightForeArm
						{
							OFFSET -5.241900 -0.000000 -0.000000
							CHANNELS 3 Zrotation Yrotation Xrotation
							JOINT RightHand
							{
								OFFSET -3.444170 -0.000000 -0.000000
								CHANNELS 3 Zrotation Yrotation Xrotation
								JOINT RightFingerBase
								{
									OFFSET 0.000000 0.000000 0.000000
									CHANNELS 3 Zrotation Yrotation Xrotation
									JOINT RightHandIndex1
									{
										OFFSET -0.622530 -0.000000 -0.000000
										CHANNELS 3 Zrotation Yrotation Xrotation
										End Site
										{
											OFFSET 0.000000 0.000000 0.000000
										}
									}
								}
								JOINT RThumb
								{
									OFFSET 0.000000 0.000000 0.000000
									CHANNELS 3 Zrotation Yrotation Xrotation
									End Site
									{
										OFFSET 0.000000 0.000000 0.000000
									}
								}
							}
						}
					}
				}
			}
		}
	}
}
MOTION
Frames: 6
Frame Time: 0.008333
-1.541231 16.834362 -1.190278 4.235024 73.895110 17.965838 -9.840379 0.005038 4.481234 -1.221058 -7.993772 -36.759262 -2.158850 0.063052 10.293757 -0.927109 -9.319168 10.540770 -2.390200 -0.000000 -43.159500 8.855322 -2.522735 1.152059 10.678550 6.292462 1.542359 2.812127 -0.858420 20.539435 0.804552 9.599490 -10.828733 -0.372100 0.000000 -36.931501 -2.061728 0.742483 -6.023426 -1.488279 0.610945 -4.357506 -7.411372 0.423280 -0.671687 10.947795 -0.845990 -4.843925 -4.685864 -0.391414 0.724425 0.000000 0.000000 0.000000 -5.632338 8.995738 2.315575 -69.067360 9.227174 12.041792 -3.418596 -15.169769 -0.002836 2.092450 4.344917 0.082208 -0.055360 -0.036862 -0.000000 0.000000 0.000000 0.000000 0.000000 0.000000 0.000000 21.226498 4.925217 0.113498 76.655932 22.032848 22.143494 2.326301 34.968634 0.011446 1.637090 8.590385 0.125912 0.019416 -0.231776 0.000000 0.000000 0.000000 0.000000 0.000000 0.000000 0.000000 
-1.392520 16.845774 -1.156251 5.597947 73.152850 19.185317 -9.830155 0.099905 4.310985 -2.175166 -7.236717 -36.582735 -2.221679 0.129438 11.228162 -0.915124 -9.254204 10.491822 -2.362900 0.000000 -41.915700 9.085063 -2.642199 1.139262 9.879713 5.952562 0.860583 2.562831 -1.131687 22.557502 0.823487 9.390014 -9.511693 -0.229300 -0.000001 -43.513701 -2.637150 0.627632 -5.994902 -1.600274 0.549555 -4.356908 -7.465865 0.354952 -0.675680 11.165220 -0.838588 -4.853496 -4.732207 -0.394680 0.716830 0.000000 0.000000 0.000000 -5.459310 8.909439 2.294571 -68.779010 9.036522 12.451410 -3.435626 -15.464022 -0.002855 2.084040 4.302511 0.081115 -0.056470 -0.037268 -0.000000 0.000000 0.000000 0.000000 0.000000 0.000000 0.000000 21.697068 4.848404 0.145780 76.794729 21.257521 21.775877 2.333290 34.243365 0.011213 1.622422 8.627791 0.125196 0.019133 -0.227771 0.000000 0.000000 0.000000 0.000000 0.000000 0.000000 0.000000 
-1.246954 16.860482 -1.122414 6.804119 72.390107 20.242069 -9.803909 0.197012 4.153628 -3.068213 -6.561512 -36.304497 -2.287935 0.175802 12.038916 -0.899623 -9.085983 10.180497 -2.266000 -0.000000 -40.780400 9.330252 -2.753993 1.106952 9.068780 5.516171 0.031255 2.287222 -1.409648 24.740612 0.836231 9.182799 -7.995967 -0.063100 -0.000001 -49.784100 -3.185620 0.513145 -5.949615 -1.706281 0.486643 -4.352563 -7.514472 0.285749 -0.678653 11.356350 -0.829934 -4.854345 -4.772445 -0.397523 0.711574 0.000000 0.000000 0.000000 -5.304904 8.798637 2.273141 -68.478426 8.803330 12.867668 -3.453303 -15.748183 -0.002917 2.060807 4.276355 0.079823 -0.057704 -0.037426 -0.000000 0.000000 0.000000 0.000000 0.000000 0.000000 0.000000 22.108591 4.759426 0.173374 76.962304 20.472328 21.284373 2.340711 33.426058 0.010870 1.568388 8.660394 0.121377 0.019273 -0.223169 0.000000 0.000000 0.000000 0.000000 0.000000 0.000000 0.000000 
-1.104856 16.878070 -1.089402 7.832914 71.601032 21.123832 -9.764768 0.295212 4.013227 -3.881149 -5.981168 -35.924529 -2.354569 0.202484 12.711101 -0.878852 -8.810144 9.649920 -2.109100 -0.000000 -39.809001 9.585131 -2.851007 1.058999 8.262187 5.005265 -0.944080 1.988727 -1.683238 27.075575 0.833343 8.947746 -6.345590 0.121900 -0.000000 -55.328100 -3.692690 0.403198 -5.891905 -1.803502 0.424791 -4.345370 -7.555864 0.218321 -0.680661 11.513912 -0.818906 -4.846839 -4.805590 -0.399874 0.708759 0.000000 0.000000 0.000000 -5.174079 8.662026 2.251627 -68.170140 8.529613 13.279651 -3.471143 -16.022828 -0.003015 2.024572 4.265467 0.078331 -0.059042 -0.037314 -0.000000 0.000000 0.000000 0.000000 0.000000 0.000000 0.000000 22.448057 4.661384 0.197807 77.153564 19.686193 20.673057 2.349212 32.523056 0.010436 1.476901 8.680041 0.114355 0.019854 -0.217923 0.000000 0.000000 0.000000 0.000000 0.000000 0.000000 0.000000 
-0.966356 16.898100 -1.057837 8.659071 70.779487 21.813899 -9.717420 0.392994 3.891004 -4.602240 -5.487771 -35.453576 -2.418934 0.210907 13.239492 -0.851697 -8.438449 8.955339 -1.909401 -0.000000 -39.030301 9.841732 -2.926862 1.001950 7.484413 4.454141 -2.056085 1.674104 -1.943568 29.546685 0.805826 8.641854 -4.655696 0.312699 0.000000 -59.407900 -4.142426 0.301830 -5.827224 -1.888886 0.366330 -4.336217 -7.589313 0.155056 -0.680708 11.632964 -0.803187 -4.832929 -4.831171 -0.401686 0.708046 0.000000 0.000000 0.000000 -5.070095 8.507028 2.230278 -67.857804 8.211201 13.684289 -3.488468 -16.286476 -0.003147 1.979152 4.267278 0.076641 -0.060467 -0.036903 -0.000000 0.000000 0.000000 0.000000 0.000000 0.000000 0.000000 22.707223 4.559809 0.220562 77.359418 18.907681 19.950646 2.359667 31.545308 0.009943 1.355721 8.677456 0.104733 0.020832 -0.212009 0.000000 0.000000 0.000000 0.000000 0.000000 0.000000 0.000000 
-0.831523 16.920068 -1.028148 9.282259 69.920092 22.316461 -9.665821 0.489272 3.785733 -5.232889 -5.067020 -34.901140 -2.479242 0.202872 13.620424 -0.817192 -7.984633 8.161009 -1.685900 -0.000000 -38.447700 10.094162 -2.977909 0.940245 6.751302 3.884393 -3.286940 1.347497 -2.184076 32.108110 0.746393 8.200787 -2.953716 0.496800 0.000000 -62.400600 -4.528277 0.210840 -5.758032 -1.961169 0.312347 -4.325378 -7.614801 0.097054 -0.677742 11.712669 -0.780452 -4.815033 -4.849456 -0.402955 0.708844 0.000000 0.000000 0.000000 -4.992599 8.342851 2.209790 -67.543456 7.843631 14.080490 -3.504984 -16.537727 -0.003307 1.929350 4.278612 0.075052 -0.061975 -0.036169 -0.000000 0.000000 0.000000 0.000000 0.000000 0.000000 0.000000 22.886285 4.460072 0.243317 77.567783 18.145249 19.131519 2.372771 30.507149 0.009425 1.216252 8.642924 0.093407 0.022118 -0.205442 0.000000 0.000000 0.000000 0.000000 0.000000 0.000000 0.000000 
